<?xml version="1.0" encoding="UTF-8" standalone="no"?>
<!-- Created with Inkscape (http://www.inkscape.org/) -->

<svg
   width="600"
   height="600"
   viewBox="0 0 158.75 158.75"
   version="1.1"
   id="svg1"
   xml:space="preserve"
   inkscape:version="1.4 (e7c3feb100, 2024-10-09)"
   sodipodi:docname="logo.svg"
   inkscape:export-filename="logo.png"
   inkscape:export-xdpi="96"
   inkscape:export-ydpi="96"
   xmlns:inkscape="http://www.inkscape.org/namespaces/inkscape"
   xmlns:sodipodi="http://sodipodi.sourceforge.net/DTD/sodipodi-0.dtd"
   xmlns="http://www.w3.org/2000/svg"
   xmlns:svg="http://www.w3.org/2000/svg"><sodipodi:namedview
     id="namedview1"
     pagecolor="#ffffff"
     bordercolor="#000000"
     borderopacity="0.25"
     inkscape:showpageshadow="2"
     inkscape:pageopacity="0.0"
     inkscape:pagecheckerboard="0"
     inkscape:deskcolor="#d1d1d1"
     inkscape:document-units="mm"
     showguides="true"
     inkscape:zoom="0.66813973"
     inkscape:cx="-43.404094"
     inkscape:cy="390.63685"
     inkscape:window-width="1920"
     inkscape:window-height="968"
     inkscape:window-x="0"
     inkscape:window-y="0"
     inkscape:window-maximized="1"
     inkscape:current-layer="layer1"><sodipodi:guide
       position="84.704321,130.04854"
       orientation="0,-1"
       id="guide2"
       inkscape:locked="false" /><sodipodi:guide
       position="32.481657,76.985829"
       orientation="1,0"
       id="guide3"
       inkscape:locked="false" /></sodipodi:namedview><defs
     id="defs1" /><g
     inkscape:label="Layer 1"
     inkscape:groupmode="layer"
     id="layer1"><rect
       style="fill:#2e3d6e;fill-opacity:1;stroke:none;stroke-width:1.265"
       id="rect1"
       width="158.75"
       height="158.75"
       x="0"
       y="0"
       inkscape:label="bg"
       sodipodi:insensitive="true" /><g
       id="g2"
       transform="matrix(0.26458333,0,0,0.26458333,-63.28284,-30.922208)"><g
         id="g5"
         style="display:none">
	<path
   d="m 537.086,318.891 c 15.448,-1.232 30.895,-2.464 46.342,-3.696 l -32.035,-39.081 c 0,0 46.296,7.684 65.858,11.763 -2.193,-15.785 -4.386,-31.571 -6.58,-47.356 0,0 34.533,16.086 49.765,24.833 1.681,-13.699 3.897,-27.343 5.042,-41.097 0.674,-8.087 2.813,-5.838 5.318,-1.316 30.647,55.311 36.517,122.421 18.595,183.092 -0.349,1.182 -1.341,1.687 -2.312,1.673 -0.365,1.058 -0.731,2.115 -1.096,3.173 -0.512,1.481 -2.51,2.594 -3.806,1.171 -38.93,-42.729 -89.661,-73.638 -145.519,-88.521 -7.843,-2.216 -5.225,-3.389 0.428,-4.638 z"
   id="path2-9" />
	<path
   d="m 508.449,233.384 c 15.48,-3.129 30.96,-6.258 46.44,-9.387 -1.818,-12.032 -5.041,-39.527 -3.399,-39.398 17.533,1.376 34.886,3.996 52.028,7.89 -0.337,-11.642 3.411,-37 3.411,-37 23.805,22.172 41.202,50.431 50.241,81.69 0.319,0.451 0.467,1.039 0.308,1.74 l -1.739,15.493 c -17.991,-8.573 -40.128,-19.862 -58.119,-28.435 2.547,18.836 6.727,30.637 9.858,49.952 0.602,3.714 2.503,5.2 -3.916,3.418 -19.927,-5.532 -40.204,-9.147 -60.827,-10.02 5.983,13.766 26.115,40.562 26.115,40.562 l -64.546,9.036 c -18.35,-10.152 -30.396,-33.155 -40.631,-45.244 0,0 38.389,0.295 55.23,-10.623 -1.858,-9.318 -10.454,-29.674 -10.454,-29.674 z"
   id="path3" />
	<path
   d="m 421.561,249.575 c -21.188,-7.529 -39.685,-21.047 -53.382,-38.771 27.646,0.199 55.29,-0.241 82.917,-1.335 7.213,-0.285 8.147,-0.829 1.055,-4.418 -20.162,-10.204 -38.666,-23.867 -55.754,-38.58 22.631,2.637 72.022,1.681 72.022,1.681 -12.475,-12.65 -25.784,-28.839 -36.429,-43.042 21.588,5.937 43.403,10.973 65.417,15.084 0,0 -51.895,-28.064 -70.388,-65.311 29.081,13.992 62.108,17.329 91.716,30.196 30.479,13.245 57.515,33.773 78.542,59.492 -1.305,5.676 -0.352,14.148 -0.626,19.955 -16.036,-3.436 -34.482,-6.324 -50.813,-7.672 0,0 -0.793,27.921 0.938,40.665 l -46.245,13.355 c 3.006,8.712 6.011,17.425 9.017,26.137 -65.414,19.187 -107.445,4.544 -107.445,4.544 0,0 12.503,-2.037 17.912,-3.406 11.333,-2.866 14.98,-3.8 1.546,-8.574 z"
   id="path4" />
	<path
   d="m 291.508,30.093 c 35.189,31.98 81.482,49.588 129.06,51.041 0.075,0.002 0.14,0.019 0.212,0.027 24.534,33.085 50.096,47.97 48.219,48.275 -0.384,0.166 -0.835,0.228 -1.349,0.126 -14.893,-2.965 -29.595,-6.692 -44.102,-11.158 5.181,15.657 13.869,30.866 26.817,41.245 5.222,4.186 3.356,3.764 -1.426,3.417 -20.15,-1.462 -40.339,-1.934 -60.533,-1.509 10.256,16.243 24.586,29.71 41.58,38.695 5.699,3.013 4.784,3.59 -0.454,3.542 -23.223,-0.217 -46.374,1.555 -69.332,4.996 12.226,20.96 24.802,31.258 53.335,44.22 -36.174,10.413 -93.475,-24.122 -98.007,-63.048 -0.311,-2.674 19.218,6.945 37.258,1.367 -17.13,-15.01 -45.348,-47.034 -45.398,-75.056 18.508,7.047 46.204,12.776 56.59,10.365 -33.662,-21.302 -79.701,-52.402 -76.938,-95.76 0.392,-3.843 0.289,-4.98 4.468,-0.785 z"
   id="path5" />
</g><g
         id="g7"
         style="display:none">
	<path
   d="m 1037.616,17.813 c 0.717,-0.303 0.296,-1.385 -0.44,-1.13 -68.964,23.901 -135.757,56.733 -191.085,104.843 -51.141,44.47 -90.883,102.302 -108.777,168.069 -9.748,35.827 -12.457,73.465 -6.581,110.185 0.145,0.909 0.724,1.463 1.409,1.706 0.194,0.38 0.538,0.704 1.086,0.892 20.404,6.995 46.327,15.28 65.773,1.278 7.021,-5.055 12.674,-12.718 14.005,-21.335 1.804,-11.677 -4.22,-23.052 -15.297,-27.563 -14.228,-5.794 -33.211,2.976 -38.172,17.514 -2.121,6.215 0.649,13.985 5.749,18.678 4.453,4.097 11.035,6.153 17.6,0.643 0.281,-2.761 0.712,-6.786 3.224,-8.509 2.796,-1.918 6.233,0.214 5.83,3.557 -0.209,1.737 -1.067,3.115 -2.153,4.441 -3.597,4.389 -9.448,6.565 -14.936,7.195 -10.612,1.219 -20.817,-3.425 -30.274,-7.615 -0.359,-0.159 2.684,-0.339 2.365,-0.317 1.715,-32.429 1.177,-64.819 8.583,-96.501 7.548,-32.291 20.346,-62.858 38.985,-90.334 37.943,-55.934 87.615,-103.184 144.686,-137.942 28.976,-17.647 74.323,-37.583 98.42,-47.755 z"
   id="path6" />
	<path
   d="m 1065.43,15.049 c -62.869,22.916 -124.062,52.185 -175.618,95.2 -45.45,37.92 -83.47,85.044 -107.956,139.122 -13.31,29.397 -22.169,60.674 -26.365,92.686 -1.544,11.78 -0.414,14.075 1.444,13.316 20.044,-21.664 48.939,-13.688 58.573,7.784 21.856,4.737 47.293,-11.323 47.293,-11.323 -11.849,-0.131 -23.407,-2.93 -33.928,-8.155 34.708,-2.709 73.47,-19.715 101.304,-40.812 0,0 -47.862,7.874 -67.613,4.199 45.096,-12.508 87.435,-33.394 125.599,-60.544 2.967,-2.111 3.747,-3.835 -1.614,-2.251 -31.087,9.189 -63.989,12.116 -96.302,14.305 53.364,-24.64 103.946,-55.043 150.72,-90.669 1.227,-0.934 8.879,-6.862 -1.488,-1.975 -41.445,19.54 -85.718,32.329 -127.111,51.968 53.232,-42.078 105.331,-85.575 156.221,-130.46 6.561,-6.04 2.281,-4.236 -1.731,-2.825 -40.078,11.688 -78.908,27.415 -114.726,48.686 40.012,-29.594 81.498,-58.137 125.594,-81.279 4.788,-2.203 4.432,-2.641 -0.634,-2.069 -41.311,7.82 -81.31,21.171 -118.963,39.66 34.971,-26.162 71.311,-50.457 108.867,-72.776 4.129,-2.451 1.891,-3.048 -1.566,-1.788 z"
   id="path7" />
</g><g
         id="g10"
         style="display:none">
	<path
   d="m 458.852,658.076 c -0.184,-1.222 -1.376,-2.252 -2.65,-1.482 1.384,1.076 2.281,2.266 2.856,3.346 0.239,-0.579 0.151,-1.296 -0.206,-1.864 z"
   id="path8" />
	<path
   d="m 313.809,680.091 -0.133,-0.039 -0.131,-0.047 c -0.443,-0.16 -0.852,-0.305 -1.227,-0.439 -3.028,-1.076 -6.159,-2.189 -6.235,-5.828 -0.04,-1.929 0.789,-3.18 2.054,-4.122 -16.157,-1.805 -31.779,-6.364 -46.614,-13.62 l -0.099,-0.048 -0.096,-0.053 c -2.701,-1.481 -6.399,-3.51 -5.379,-7.491 0.293,-1.145 1.436,-3.807 5.701,-3.807 0.684,0 1.515,0.051 2.613,0.16 1.656,0.164 3.358,0.248 5.057,0.248 6.117,0 12.062,-1.068 17.605,-2.64 -19.525,-4.199 -37.751,-13.462 -52.626,-26.946 l -0.052,-0.047 -0.05,-0.049 c -0.416,-0.401 -0.801,-0.763 -1.148,-1.09 -2.118,-1.997 -4.519,-4.26 -3.197,-7.589 0.48,-1.209 1.821,-3.237 5.411,-3.237 0.798,0 1.795,0.076 3.544,0.272 0.663,0.059 1.348,0.107 2.06,0.145 -12.951,-6.887 -24.353,-16.539 -33.207,-28.287 -0.472,-0.616 -0.948,-1.172 -1.368,-1.662 -1.316,-1.536 -3.303,-3.857 -1.909,-6.887 0.317,-0.688 1.606,-2.933 4.892,-2.933 1.159,0 2.619,0.247 6.009,1.016 l 0.054,0.012 0.054,0.013 c 1.95,0.491 3.965,0.895 6.023,1.235 -7.294,-4.717 -14.22,-10.142 -20.727,-16.238 -12.104,-11.342 -22.476,-24.739 -30.829,-39.82 -2.041,-3.685 -3.653,-6.595 -1.939,-9.503 0.91,-1.544 2.544,-2.466 4.371,-2.466 1.866,0 3.603,0.941 6.157,2.677 8.697,5.912 18.501,11.158 28.835,15.511 -12.35,-8.597 -23.836,-18.542 -34.364,-29.769 C 159.305,472.205 147.714,455.995 138.274,438.318 95.101,406.987 50.447,370.142 20.45,338.302 c -3.145,-4.421 -3.994,-2.843 -2.465,1.34 5.996,16.4 12.345,32.889 21.898,47.6 9.162,14.11 21.309,25.712 34.314,36.254 24.577,19.921 50.051,38.823 75.303,57.924 -32.293,-16.683 -62.945,-36.43 -91.446,-59.025 -4.34,-3.38 -3.066,-1.256 -3.577,1.454 -5.117,29.793 21.915,49.249 43.326,64.008 15.17,10.458 30.698,20.383 46.521,29.812 -23.489,-10.703 -47.589,-22.17 -70.6,-33.878 -4.355,-2.216 -3.531,-0.866 -2.688,1.347 22.698,59.601 88.585,78.455 140.764,105.036 -29.035,-9.919 -59.041,-18.868 -88.076,-28.787 -5.326,-1.98 -4.193,-0.281 -2.339,2.577 30.071,41.954 73.024,73.809 121.678,90.56 -18.314,-3.428 -37.195,-7.803 -54.456,-14.95 -3.301,-1.204 -3.786,-1.366 -1.593,2.122 18.467,27.369 48.111,45.99 80.474,51.182 -7.75,-0.095 -16.442,0.03 -24.096,-1.572 -4.364,-0.914 -3.231,-0.266 -1.059,2.564 21.44,23.669 53.767,35.695 85.375,32.29 -3.364,2.683 -7.2,5.597 -11.416,6.773 -5.5,1.715 -4.529,1.877 0.134,3.022 46.065,9.027 80.907,-24.41 114.22,-53.675 -17.753,4.518 -36.008,6.802 -54.48,6.802 -21.18,0 -42.16,-3.025 -62.357,-8.991 z"
   id="path9" />
	<path
   d="m 448.277,658.308 c -1.327,-0.249 -2.832,-0.391 -4.533,-0.391 -0.573,0 -1.164,0.015 -1.779,0.047 -2.463,0.128 -4.979,0.237 -7.517,0.307 -1.025,0.028 -2.053,0.048 -3.085,0.06 -0.054,10e-4 -0.107,10e-4 -0.16,0.002 -0.558,0.006 -1.115,0.016 -1.674,0.016 -9.101,0 -18.354,-0.831 -26.789,-3.892 -3.291,-1.194 -6.461,-2.717 -9.444,-4.678 -6.127,-4.028 -11.41,-9.878 -14.002,-16.806 -2.984,-7.976 -1.253,-15.591 2.471,-22.952 5.4,-10.674 12.917,-20.97 9.699,-33.556 -3.217,-12.586 -14.587,-21.383 -24.859,-28.218 -48.552,-32.305 -103.562,-53.028 -154.312,-81.398 -28.615,-15.996 -58.859,-31.97 -78.681,-58.222 -0.777,-1.028 -1.405,-1.428 -1.885,-1.428 -1.144,0 -1.442,2.269 -0.889,3.69 4.604,11.832 10.135,23.188 16.518,33.955 22.942,38.697 56.912,69.771 98.606,87.854 -24.348,-4.087 -49.661,-13.901 -70.155,-27.832 -1.858,-1.263 -2.981,-1.864 -3.516,-1.864 -0.918,0 -0.11,1.767 1.678,4.995 16.007,28.9 40.304,52.449 70.52,65.299 -9.824,-0.827 -20.642,-1.226 -30.244,-3.643 -2.649,-0.601 -4.193,-0.899 -4.971,-0.899 -1.635,0 0.116,1.319 2.114,3.928 13.204,17.518 31.965,29.834 52.837,35.229 -6.06,0.145 -12.721,0.716 -19.102,0.716 -2.314,0 -4.59,-0.075 -6.788,-0.272 -1.398,-0.157 -2.403,-0.248 -3.071,-0.249 -2.182,0 -0.779,0.975 2.191,3.834 18.903,17.134 43.176,27.017 68.507,28.171 -10.949,5.042 -23.406,9.594 -36.64,9.594 -1.827,0 -3.667,-0.087 -5.521,-0.271 -0.914,-0.091 -1.625,-0.137 -2.149,-0.137 -2.17,0 -1.148,0.79 1.937,2.481 18.943,9.265 39.57,14.027 60.535,14.027 0.758,0 1.514,-0.006 2.274,-0.019 -3.525,2.091 -8.393,4.946 -12.391,6.147 -4.675,1.884 -4.243,1.713 1.135,3.654 19.88,5.872 40.459,8.798 61.027,8.798 21.192,0 42.372,-3.114 62.777,-9.303 2.535,-0.769 5.059,-1.577 7.568,-2.441 7.283,-2.507 10.167,-7.03 8.451,-10.404 -0.915,-1.796 -3.132,-3.263 -6.688,-3.929 z"
   id="path10" />
</g><path
         d="m 713.809,612.235 c -0.127,-0.979 -0.882,-1.841 -2.129,-1.581 -11.893,2.484 -23.978,0.449 -34.232,-5.599 -0.118,-0.323 -0.365,-0.621 -0.772,-0.854 -13.22,-7.573 -21.749,-21.203 -23.941,-36.183 -1.096,-7.486 -0.602,-15.281 1.825,-22.47 2.861,-8.476 8.471,-15.393 14.424,-21.915 10.89,-11.93 24.746,-25.517 22.786,-43.223 -1.743,-15.744 -16.578,-25.519 -30.961,-28.389 -9.567,-1.909 -19.482,-1.423 -29.154,-0.76 -10.075,0.691 -20.112,1.858 -30.109,3.274 -20.639,2.923 -41.109,6.9 -61.726,9.963 -40.443,6.009 -83.696,8.499 -122.079,-8.182 -33.462,-14.542 -68.942,-50.506 -66.464,-88.362 0.451,-6.888 -3.994,-3.249 -5.09,-1 -17.86,36.686 -6.265,82.007 21.58,110.396 31.139,31.747 76.954,43.316 120.29,41.215 24.07,-1.166 47.711,-6.236 70.782,-13.034 -23.045,18.199 -51.341,29.35 -80.763,31.312 -35.104,2.34 -70.378,-8.916 -98.142,-30.33 -4.81,-4.503 -3.989,-1.799 -3.96,1.81 -0.671,29.981 25.049,52.338 52.097,60.942 30.876,9.822 65.353,8.721 96.248,-0.359 16.554,-4.865 32.243,-12.176 46.638,-21.643 -2.106,19.977 -13.982,38.677 -31.909,48.2 -20.88,11.091 -49.226,8.124 -67.878,-6.138 -5.279,-4.037 -3.979,-1.829 -3.662,2.42 2.069,27.751 31.766,43.564 56.543,46.241 25.361,2.741 50.355,-6.847 67.743,-24.995 -7.824,20.082 -25.121,37.025 -45.98,43.123 -5.659,1.654 -4.231,1.986 -0.465,3.134 26.323,8.017 48.406,-8.189 66.195,-26.01 -8.672,17.086 -11.393,37.068 -6.752,55.835 5.245,21.214 19.256,39.697 38.11,50.675 2.925,1.25 3.543,1.537 1.813,-1.821 -13.258,-22.095 -12.653,-51.389 -0.605,-74.004 1.239,18.332 12.232,35.207 28.912,43.553 3.388,1.696 5.165,2.038 1.792,-1.276 -13.521,-13.284 -13.817,-36.383 -6.024,-53.072 8.588,-18.393 26.691,-30.262 45.052,-37.369 1.763,-0.681 1.304,-2.881 -0.033,-3.524 z"
         id="path11"
         style="display:none" /><g
         id="g19"
         style="display:none">
	<path
   d="m 932.413,695.221 c -9.068,5.76 -18.458,11.011 -28.028,15.681 -0.006,0.398 0.002,0.802 0.039,1.219 0.456,5.172 4.347,7.391 8.666,7.391 1.516,0 3.085,-0.274 4.577,-0.789 5.518,-1.906 10.87,-4.755 15.924,-8.193 -0.674,-0.899 -1.125,-2.005 -1.277,-3.252 -0.486,-4.012 -0.448,-8.07 0.099,-12.057 z"
   id="path12" />
	<path
   d="m 896.156,709.767 c -1.216,-1.419 -1.743,-3.329 -1.447,-5.241 0.377,-2.432 0.874,-4.84 1.487,-7.214 -8.074,4.656 -16.746,8.115 -25.904,10.326 -0.497,0.12 -1.005,0.181 -1.509,0.181 -1.847,0 -3.568,-0.809 -4.752,-2.217 -0.381,0.895 -0.747,1.794 -1.094,2.697 -2.684,6.979 1.287,12.594 8.637,12.769 0.151,0.004 0.304,0.005 0.455,0.005 7.664,0 15.804,-4.538 22.219,-8.233 1.083,-0.624 2.151,-1.272 3.206,-1.94 -0.478,-0.315 -0.918,-0.69 -1.298,-1.133 z"
   id="path13" />
	<path
   d="m 862.701,700.151 c 0.861,-3.924 1.936,-7.796 3.218,-11.594 -5.877,3.517 -12.139,6.379 -18.727,8.554 -0.63,0.208 -1.278,0.314 -1.925,0.314 -2.099,0 -4.025,-1.103 -5.153,-2.949 -1.167,-1.911 -1.271,-4.31 -0.27,-6.261 l 9.23,-17.985 c -8.098,5.638 -16.865,10.274 -26.221,13.854 -0.659,0.252 -1.351,0.38 -2.058,0.38 -2.015,0 -3.933,-1.033 -5.131,-2.764 -1.144,-1.653 -1.421,-3.716 -0.742,-5.519 1.55,-4.117 3.249,-8.189 5.087,-12.199 -7.981,5.745 -15.977,10.243 -24.152,13.602 -0.71,0.292 -1.453,0.44 -2.21,0.44 -1.32,0 -2.578,-0.456 -3.624,-1.27 -2.791,4.623 -5.569,9.254 -8.295,13.913 -2.7,4.614 -5.203,9.729 -4.195,15.225 0.839,4.571 4.084,8.3 8.764,9.094 0.666,0.113 1.334,0.166 2.002,0.166 4.423,0 8.823,-2.315 12.319,-4.783 5.189,-3.662 9.944,-8.083 14.566,-12.422 4.28,-4.018 8.37,-8.221 12.297,-12.57 -1.738,3.946 -3.264,7.979 -4.526,12.086 -2.278,7.414 -2.706,18.413 6.694,20.888 1.142,0.301 2.301,0.438 3.467,0.438 8.496,0 17.395,-7.298 23.505,-11.887 2.038,-1.531 4.023,-3.122 5.96,-4.765 -0.059,-0.655 -0.026,-1.323 0.12,-1.986 z"
   id="path14" />
	<path
   d="m 789.957,676.702 c -0.409,-0.327 -0.787,-0.704 -1.118,-1.139 -1.214,-1.596 -1.633,-3.648 -1.123,-5.491 1.775,-6.407 3.895,-12.689 6.352,-18.83 -12.242,13.023 -26.467,23.456 -46.444,24.893 -0.148,0.011 -0.294,0.016 -0.438,0.016 -2.122,0 -4.048,-1.11 -5.152,-2.97 -1.155,-1.946 -1.212,-4.364 -0.15,-6.31 6.017,-11.022 12.644,-22.379 20.152,-34.505 -2.025,1.262 -4.207,2.256 -6.586,2.844 -1.351,0.334 -2.805,0.832 -4.21,1.315 -2.511,0.862 -4.883,1.676 -7.018,1.676 -2.576,0 -4.087,-1.154 -4.902,-2.123 -2.004,-2.382 -1.454,-5.543 -1.274,-6.581 0.177,-1.015 0.418,-2.083 0.715,-3.196 -12.98,17.464 -24.222,36.197 -33.427,55.943 -3.029,6.496 -6.094,13.123 -8.452,19.898 -1.751,5.031 -2.224,11.574 2.657,15.084 1.452,1.044 2.94,1.476 4.413,1.476 3.691,0 7.287,-2.708 9.997,-5.272 5.816,-5.5 11.373,-11.312 16.85,-17.146 3.413,-3.636 6.766,-7.326 10.07,-11.058 -0.521,0.891 -1.046,1.778 -1.559,2.674 -3.52,6.144 -6.899,12.384 -10.018,18.742 -1.981,4.039 -4.161,9.163 -2.088,13.596 1.565,3.346 3.879,4.603 6.488,4.603 6.064,0 13.729,-6.779 17.351,-9.853 10.352,-8.788 20.225,-18.138 29.561,-27.999 3.187,-3.367 6.297,-6.803 9.353,-10.287 z"
   id="path15" />
	<path
   d="m 971.564,690.646 c -2.542,0 -4.908,-0.476 -7.034,-1.414 -1.509,-0.666 -2.834,-1.481 -3.992,-2.419 -1.689,-1.368 -3.007,-3.013 -3.938,-4.909 -1.508,-3.072 -2.017,-6.793 -1.48,-11.041 -2.701,1.143 -5.608,2.228 -8.633,3.124 -0.861,0.255 -1.732,0.496 -2.611,0.717 -0.904,0.227 -1.815,0.437 -2.733,0.621 -2.948,0.592 -5.959,0.945 -8.967,0.945 -8.077,0 -15.275,-2.508 -21.395,-7.454 -4.063,-3.284 -7.828,-7.927 -9.269,-14.313 -0.177,-0.783 -0.321,-1.591 -0.424,-2.428 -0.093,-0.753 -0.153,-1.528 -0.18,-2.325 -0.14,-4.114 0.626,-8.823 2.681,-14.203 -3.206,1.027 -6.271,1.534 -9.237,1.534 -5.958,0 -11.288,-2.097 -15.841,-6.233 -6.578,-5.976 -8.538,-15.98 -4.992,-25.485 0.448,-1.201 0.979,-2.383 1.596,-3.548 -0.915,-0.058 -1.823,-0.165 -2.716,-0.321 -8.377,-1.456 -14.787,-7.575 -16.333,-15.589 -1.375,-7.133 0.31,-13.12 3.189,-18.415 -1.097,0.131 -2.203,0.198 -3.302,0.198 -8.414,0 -15.619,-3.825 -19.271,-10.231 -5.406,-9.481 -1.772,-20.889 3.431,-28.403 0.282,-0.408 0.571,-0.809 0.864,-1.204 -1.966,-0.133 -3.92,-0.525 -5.828,-1.171 -5.537,-1.873 -9.737,-5.508 -11.825,-10.237 -0.213,-0.483 -0.392,-0.974 -0.556,-1.469 -23.99,26.846 -52.011,60.939 -68.006,87.225 -0.684,1.124 -1.338,2.229 -1.977,3.323 -1.863,3.191 -3.526,6.25 -4.962,9.148 -2.94,5.935 -4.93,11.203 -5.684,15.54 -0.503,2.89 0.396,3.836 2.081,3.836 2.405,0 6.411,-1.926 10.232,-2.869 8.458,-2.089 14.655,-11.092 20.205,-17.151 5.321,-5.81 10.553,-11.701 15.713,-17.652 -15.912,23.557 -31.207,47.518 -44.839,72.491 -0.685,1.256 0.107,3.132 1.654,3.132 0.046,0 0.093,-0.002 0.141,-0.005 33.532,-2.412 50.07,-32.224 70.563,-55.806 -11.793,16.628 -20.695,35.24 -26.168,54.998 -0.33,1.191 0.674,2.684 1.926,2.684 0.205,0 0.416,-0.04 0.63,-0.128 14.834,-6.096 27.513,-15.402 39.043,-26.128 -5.709,9.526 -10.569,19.571 -14.509,30.034 -0.464,1.233 0.728,2.662 1.983,2.662 0.191,0 0.384,-0.033 0.573,-0.105 15.322,-5.863 29.093,-14.743 40.661,-26.111 -6.162,12.007 -12.325,24.015 -18.487,36.022 -0.685,1.334 0.246,3.156 1.725,3.156 0.198,0 0.406,-0.033 0.622,-0.104 10.852,-3.583 20.772,-9.135 29.381,-16.349 -3.295,6.649 -5.879,13.641 -7.714,20.878 -0.079,0.311 -0.151,0.624 -0.227,0.936 -0.196,0.802 -0.391,1.605 -0.568,2.413 -0.303,1.382 0.689,2.621 2.023,2.621 0.173,0 0.351,-0.021 0.534,-0.065 12.731,-3.073 24.585,-8.748 34.915,-16.62 -2.611,5.76 -4.433,11.851 -5.415,18.185 -0.224,1.443 0.745,2.598 2.014,2.598 0.331,0 0.683,-0.079 1.039,-0.251 0.558,-0.271 1.11,-0.553 1.667,-0.827 0.73,-0.36 1.46,-0.72 2.187,-1.086 11.599,-5.841 22.764,-12.464 33.449,-19.833 -2.64,6.62 -3.606,13.791 -2.73,21.015 0.065,0.538 0.254,0.981 0.533,1.321 0.378,0.46 0.926,0.724 1.606,0.724 0.157,0 0.321,-0.014 0.492,-0.042 0.203,-0.034 0.401,-0.073 0.603,-0.108 1.481,-0.257 2.931,-0.546 4.352,-0.868 15.821,-3.583 28.118,-11.095 40.821,-20.209 -0.073,0.027 -0.145,0.055 -0.218,0.082 -4.145,1.5 -8.564,2.966 -13.068,2.966 z"
   id="path16" />
	<path
   d="m 1039.673,601.174 c -7.702,9.967 -16.317,18.692 -25.681,26.029 -0.775,0.607 -1.555,1.207 -2.34,1.795 -0.855,0.64 -1.716,1.267 -2.582,1.884 -0.664,0.473 -1.331,0.942 -2.002,1.402 -11.971,8.198 -23.469,12.354 -34.174,12.354 -3.821,0 -7.553,-0.547 -11.091,-1.625 -13.446,-4.097 -23.846,-16.11 -25.881,-29.892 -0.181,-1.226 -0.29,-2.457 -0.343,-3.689 -0.037,-0.862 -0.049,-1.725 -0.025,-2.586 0.023,-0.816 0.08,-1.632 0.159,-2.446 0.117,-1.208 0.287,-2.413 0.525,-3.609 -1.391,0.375 -2.782,0.644 -4.179,0.831 -0.125,0.017 -0.249,0.044 -0.374,0.059 -0.873,0.107 -1.75,0.162 -2.624,0.193 -0.349,0.012 -0.699,0.032 -1.046,0.032 -0.773,0 -1.532,-0.04 -2.284,-0.097 -8.346,-0.637 -15.292,-4.763 -19.272,-11.559 -2.343,-3.999 -3.628,-8.167 -3.883,-12.487 -0.066,-1.112 -0.059,-2.234 0.013,-3.365 0.063,-0.98 0.173,-1.967 0.339,-2.962 0.828,-4.958 2.93,-10.096 6.323,-15.402 -0.817,-0.055 -1.623,-0.155 -2.411,-0.301 -8.023,-1.478 -14.033,-8.079 -14.955,-16.425 -0.622,-5.63 0.435,-10.807 3.233,-15.826 0.427,-0.766 0.886,-1.511 1.37,-2.236 -9.627,-0.376 -17.531,-5.812 -20.307,-14.064 -2.836,-8.427 -0.223,-18.813 6.99,-27.783 0.826,-1.027 1.687,-2.01 2.571,-2.959 -1.324,-0.209 -2.637,-0.542 -3.926,-0.997 -5.063,-1.788 -8.82,-5.363 -10.58,-10.066 -0.681,-1.821 -1.043,-3.752 -1.108,-5.726 -15.803,10.528 -30.234,23.898 -40.308,39.457 -0.908,1.403 -1.728,2.905 -2.367,4.465 -0.596,1.454 -1.027,2.959 -1.225,4.483 -0.135,1.033 -0.157,2.074 -0.048,3.115 0.126,1.204 0.421,2.406 0.945,3.591 1.735,3.93 5.352,6.625 9.355,7.979 2.049,0.693 4.054,1.003 6.01,1.003 3.561,0 6.961,-1.027 10.178,-2.635 -3.243,3.262 -6.509,6.51 -9.14,10.31 -4.664,6.737 -7.572,16.376 -3.237,23.979 3.218,5.644 9.442,8.134 15.66,8.134 1.322,0 2.642,-0.112 3.935,-0.331 3.945,-0.667 7.467,-2.324 10.69,-4.512 -6.282,7.821 -12.507,15.666 -10.431,26.43 1.263,6.55 6.479,11.154 12.963,12.281 1.225,0.213 2.436,0.311 3.633,0.311 2.472,0 4.882,-0.418 7.236,-1.103 -2.767,2.993 -5.115,6.32 -6.565,10.208 -2.66,7.131 -1.98,15.621 3.893,20.957 4.06,3.688 8.51,5.153 13.046,5.153 6.226,0 12.613,-2.761 18.372,-6.322 -4.811,7.83 -8.492,16.763 -7.468,24.983 0.103,0.828 0.255,1.648 0.457,2.459 0.221,0.888 0.5,1.766 0.849,2.63 1.291,3.192 3.487,6.202 6.833,8.907 5.827,4.71 12.231,6.531 18.782,6.531 1.246,0 2.496,-0.066 3.75,-0.191 1.049,-0.104 2.099,-0.257 3.15,-0.439 0.969,-0.168 1.937,-0.364 2.905,-0.591 6.701,-1.57 13.333,-4.468 19.444,-7.584 -3.176,8.056 -4.524,18.012 4.785,22.119 1.716,0.757 3.523,1.06 5.356,1.06 3.97,0 8.067,-1.419 11.648,-2.717 5.567,-2.018 10.951,-4.56 16.038,-7.592 1.255,-0.748 2.489,-1.527 3.704,-2.331 2.785,-1.842 5.464,-3.826 8.027,-5.942 2.302,-1.901 4.512,-3.906 6.619,-6.009 12.125,-12.105 20.901,-27.424 24.908,-44.281 1.863,-7.839 2.696,-15.855 2.537,-23.856 -1.716,2.524 -3.505,4.997 -5.374,7.414 z"
   id="path17" />
	<path
   d="m 1057.441,553.066 c -0.041,0 -0.082,10e-4 -0.123,0.005 -3.451,0.265 -6.902,0.529 -10.354,0.794 -3.289,4.905 -6.941,9.875 -11.01,14.443 -0.666,0.748 -1.345,1.483 -2.034,2.207 -0.704,0.74 -1.417,1.468 -2.145,2.179 -0.452,0.441 -0.906,0.877 -1.367,1.305 -10.288,9.552 -21.054,14.196 -32.914,14.196 -1.776,0 -3.596,-0.11 -5.408,-0.326 -12.698,-1.516 -22.87,-8.554 -27.21,-18.828 -1.617,-3.828 -2.418,-7.941 -2.431,-12.199 -0.002,-0.766 0.017,-1.536 0.066,-2.31 0.047,-0.742 0.122,-1.487 0.216,-2.236 0.279,-2.216 0.756,-4.456 1.446,-6.705 -0.811,0.077 -1.618,0.116 -2.419,0.116 -2.64,0 -5.206,-0.426 -7.628,-1.265 -7.004,-2.428 -12.535,-8.622 -14.795,-16.571 -3.531,-12.414 1.185,-22.9 6.891,-30.83 -0.914,-0.232 -1.817,-0.516 -2.706,-0.854 -9.542,-3.623 -14.958,-12.598 -14.133,-23.423 0.866,-11.354 6.303,-22.476 11.207,-30.402 -1.645,0.324 -3.357,0.507 -5.144,0.507 -1.165,0 -2.352,-0.079 -3.526,-0.234 -6.97,-0.922 -12.657,-5.035 -15.211,-11.001 -2.21,-5.16 -1.882,-11.154 0.922,-17.479 -4.708,3.49 -9.369,7.042 -13.958,10.69 -5.278,4.195 -10.473,8.494 -15.582,12.894 -4.277,3.683 -8.585,7.572 -11.4,12.545 -0.1,0.176 -0.179,0.357 -0.273,0.535 -0.553,1.05 -0.999,2.126 -1.338,3.215 -0.293,0.941 -0.511,1.888 -0.64,2.833 -0.849,6.203 1.866,12.222 8.762,14.658 2.006,0.709 3.97,1.023 5.887,1.023 2.114,0 4.168,-0.389 6.161,-1.048 0.655,-0.217 1.304,-0.46 1.946,-0.733 0.289,-0.123 0.577,-0.247 0.864,-0.38 -0.256,0.242 -0.514,0.481 -0.772,0.722 -0.571,0.534 -1.144,1.065 -1.72,1.596 -3.2,2.95 -6.419,5.895 -9.157,9.3 -5.154,6.41 -9.062,15.617 -6.29,23.853 2.503,7.44 9.951,11.254 17.442,11.254 0.357,0 0.714,-0.009 1.071,-0.026 3.091,-0.15 5.988,-0.892 8.732,-2.024 -6.702,6.484 -12.493,13.44 -11.349,23.791 0.707,6.4 5.144,11.609 11.577,12.794 1.046,0.193 2.095,0.281 3.141,0.281 2.666,0 5.321,-0.576 7.899,-1.478 -6.491,7.549 -12.014,16.46 -11.957,25.789 0.008,1.222 0.112,2.452 0.321,3.686 0.269,1.586 0.714,3.18 1.356,4.778 0.462,1.148 1.017,2.297 1.691,3.448 2.228,3.804 5.516,6.43 9.304,7.964 1.415,0.573 2.898,0.996 4.425,1.266 1.168,0.206 2.361,0.321 3.565,0.353 0.225,0.006 0.45,0.018 0.676,0.018 1.051,0 2.109,-0.065 3.166,-0.194 4.269,-0.522 8.179,-2.012 11.844,-4.024 -2.048,4.251 -3.216,8.912 -3.318,13.689 -0.018,0.842 -0.003,1.687 0.047,2.534 0.052,0.887 0.139,1.776 0.268,2.666 0.004,0.031 0.007,0.062 0.012,0.094 1.804,12.217 11.188,22.93 22.981,26.523 3.273,0.997 6.583,1.444 9.879,1.444 10.168,0 20.224,-4.25 28.849,-9.678 1.011,-0.636 2.007,-1.285 2.976,-1.949 0.074,-0.05 0.146,-0.103 0.219,-0.154 0.964,-0.663 1.916,-1.343 2.862,-2.033 10.81,-7.884 20.418,-17.468 28.584,-28.036 2.961,-3.831 5.715,-7.804 8.269,-11.897 0.601,-0.964 1.193,-1.933 1.771,-2.91 0.579,-0.977 1.148,-1.959 1.704,-2.949 4.496,-8.012 8.238,-16.441 11.193,-25.177 0.399,-1.177 -0.628,-2.635 -1.88,-2.635 z"
   id="path18" />
	<path
   d="m 932.465,438.513 c 1.018,0.135 2.011,0.198 2.981,0.198 6.821,0 12.508,-3.143 18.084,-6.719 -2.96,3.288 -5.686,6.793 -8.121,10.532 -5.777,8.872 -11.066,19.856 -11.881,30.555 -0.653,8.572 3.277,16.114 11.464,19.222 2.335,0.886 4.817,1.335 7.28,1.335 0.713,0 1.424,-0.038 2.13,-0.113 -8.254,9.301 -14.733,20.338 -11.072,33.21 1.754,6.169 5.966,11.634 12.159,13.781 2.06,0.714 4.166,1.036 6.267,1.036 3.203,0 6.394,-0.748 9.396,-1.993 -2.423,4.638 -4.064,9.698 -4.463,14.82 -0.058,0.753 -0.097,1.506 -0.099,2.26 -0.003,0.783 0.029,1.565 0.09,2.348 0.22,2.846 0.862,5.68 2.027,8.438 4.098,9.699 13.745,15.109 23.874,16.318 1.676,0.2 3.316,0.297 4.915,0.297 10.969,0 20.164,-4.538 28.04,-11.271 0.783,-0.669 1.554,-1.357 2.311,-2.068 0.731,-0.686 1.448,-1.392 2.156,-2.112 4.267,-4.34 8.123,-9.258 11.651,-14.315 0.51,-0.731 1.011,-1.465 1.507,-2.2 0.494,-0.731 0.981,-1.464 1.462,-2.196 1.359,-2.07 4.115,-11.343 3.333,-11.343 -0.599,0 -27.312,-1.488 -38.699,-7.485 -12.502,-6.585 -21.421,-17.941 -21.705,-32.456 -0.576,-29.477 25.166,-50.416 31.026,-78.104 4.421,-20.892 -5.539,-46.361 -29.814,-46.634 -0.153,-0.002 -0.306,-0.003 -0.458,-0.003 -13.08,0 -26.097,6.26 -36.989,12.995 -4.379,2.708 -8.966,5.797 -13.28,9.266 -1.938,1.558 -3.817,3.194 -5.599,4.91 -2.245,2.161 -4.329,4.445 -6.168,6.859 -1.337,1.754 -2.553,3.569 -3.595,5.458 -2.761,5.008 -4.501,11.151 -2.143,16.657 2.106,4.925 6.731,7.829 11.933,8.517 z"
   id="path19" />
</g></g><g
       id="g4"
       inkscape:label="logo"
       transform="translate(-6.2255631,4.1366515)"><path
         id="path1"
         style="fill:#c3eafc;fill-opacity:1;stroke:none;stroke-width:1.07566;stroke-opacity:1"
         inkscape:label="moon"
         d="M 93.065526,22.221947 A 54.886488,54.886488 0 0 1 99.27342,47.552184 54.886488,54.886488 0 0 1 44.386844,102.43876 54.886488,54.886488 0 0 1 24.598904,98.6023 54.886488,54.886488 0 0 0 73.196455,128.25475 54.886488,54.886488 0 0 0 128.08303,73.368179 54.886488,54.886488 0 0 0 93.065526,22.221947 Z m 18.246944,40.529309 a 8.9713125,8.7890997 0 0 1 8.97103,8.788611 8.9713125,8.7890997 0 0 1 -8.97103,8.789127 8.9713125,8.7890997 0 0 1 -8.97154,-8.789127 8.9713125,8.7890997 0 0 1 8.97154,-8.788611 z" /><path
         id="path2"
         style="fill:#c3eafc;fill-opacity:1;stroke:none;stroke-width:1.265;stroke-opacity:1"
         d="m 128.33211,80.633885 c -0.23569,2.259078 -0.72554,4.592491 -1.32912,6.833175 l 23.088,6.27404 c 3.5e-4,-0.01702 0.004,-0.03354 0.004,-0.05065 -0.0551,-8.805006 -21.76249,-13.056565 -21.76249,-13.056565 z m -1.60042,7.795907 c -1.88767,6.576788 -4.62194,12.108308 -4.62194,12.108308 0,0 24.79332,-0.76319 27.70425,-5.83582 z"
         inkscape:label="beak" /><g
         id="g3"
         inkscape:label="text"
         transform="translate(-6.732,-6.336)"><text
           xml:space="preserve"
           style="font-size:12.7px;text-align:start;writing-mode:lr-tb;direction:ltr;text-anchor:start;fill:#c3eafc;fill-opacity:1;stroke:none;stroke-width:1.265;stroke-opacity:1"
           x="38.955109"
           y="43.667927"
           id="text2"
           inkscape:label="south"><tspan
             sodipodi:role="line"
             id="tspan2"
             style="font-style:normal;font-variant:normal;font-weight:500;font-stretch:normal;font-size:12.7px;font-family:'Noto Sans Mono CJK SC';-inkscape-font-specification:'Noto Sans Mono CJK SC Medium';stroke-width:1.265"
             x="38.955109"
             y="43.667927">SOUTH</tspan></text><text
           xml:space="preserve"
           style="font-size:12.7px;text-align:start;writing-mode:lr-tb;direction:ltr;text-anchor:start;fill:#c3eafc;fill-opacity:1;stroke:none;stroke-width:1.265;stroke-opacity:1"
           x="44.81884"
           y="54.172218"
           id="text2-7"
           inkscape:label="carolina"><tspan
             sodipodi:role="line"
             id="tspan2-9"
             style="font-style:normal;font-variant:normal;font-weight:500;font-stretch:normal;font-size:12.7px;font-family:'Noto Sans Mono CJK SC';-inkscape-font-specification:'Noto Sans Mono CJK SC Medium';stroke-width:1.265"
             x="44.81884"
             y="54.172218">CAROLINA</tspan></text><text
           xml:space="preserve"
           style="font-size:18.7773px;text-align:start;writing-mode:lr-tb;direction:ltr;text-anchor:start;fill:#c3eafc;fill-opacity:1;stroke:none;stroke-width:1.87033;stroke-opacity:1"
           x="85.239227"
           y="55.288769"
           id="text2-7-7"
           transform="scale(0.74186249,1.3479587)"
           inkscape:label="birds"><tspan
             sodipodi:role="line"
             id="tspan2-9-4"
             style="font-style:normal;font-variant:normal;font-weight:500;font-stretch:normal;font-size:18.7773px;font-family:'Noto Sans Mono CJK SC';-inkscape-font-specification:'Noto Sans Mono CJK SC Medium';stroke-width:1.87033"
             x="85.239227"
             y="55.288769">BIRDS</tspan></text></g><path
         d="m 22.302237,63.722545 c 1.108572,3.410725 6.2945,6.794603 6.726375,7.933987 0.431875,1.139384 -5.293553,0.190275 -7.725197,1.275807 -0.193073,0.07992 -0.320371,0.06223 -0.01048,0.553494 1.873382,3.155131 7.818843,5.041545 8.520446,6.286069 0.701603,1.244524 -4.929578,2.764358 -5.771211,5.432886 -0.04801,0.320048 0.06295,0.36726 0.257688,0.493958 2.257884,1.461386 6.854838,1.291674 7.576638,1.996545 0.7218,0.704871 -2.144589,2.866656 -2.420628,4.851274 -0.07281,0.364932 -0.142813,0.662447 0.152628,0.80844 2.049811,1.240035 5.70686,0.528695 6.557752,0.947765 0.850892,0.41907 -1.284968,3.92164 -0.690557,4.51605 0.594411,0.59441 5.425942,-1.64077 6.022376,-1.4866 0.596434,0.15417 -0.126401,2.04898 0.119736,2.90227 0.01687,0.11207 0.07706,0.40353 0.846189,0.32775 2.358181,-0.39411 5.418036,-2.97408 5.92231,-3.25218 0.504274,-0.27809 -0.449538,1.54343 -0.53137,2.28112 -0.09197,0.82921 0.880504,0.4327 1.133156,0.33793 3.369438,-1.26436 6.136675,-2.36947 9.583399,-3.41062 2.111611,-0.63787 4.183272,-0.34757 6.361718,-0.004 0.729783,0.2671 0.936878,-0.48542 0.192674,-0.6143 -3.465762,-1.27344 -6.22567,-4.170552 -8.661827,-6.950393 C 50.518114,82.165152 48.158516,73.193665 44.119149,65.306089 40.432148,58.106305 34.686599,49.184922 26.130593,49.798436 c -0.190082,0.01363 -0.323474,0.0269 -0.35737,0.215021 -0.884085,4.913182 2.906024,10.062963 4.493797,13.505778 1.587773,3.442815 -5.170967,-1.07228 -7.74054,-0.337152 -0.350956,0.06936 -0.335863,0.209997 -0.224243,0.540462 z"
         id="path1-4"
         style="fill:#c3eafc;fill-opacity:1;stroke-width:0.128008"
         sodipodi:nodetypes="czcczcczcczzzcczscsccccsczcc"
         inkscape:label="feather" /></g></g></svg>
