<?xml version="1.0" encoding="iso-8859-1"?>
<!-- Generator: Adobe Illustrator 21.0.2, SVG Export Plug-In . SVG Version: 6.00 Build 0)  -->
<svg version="1.1" id="Capa_1" xmlns="http://www.w3.org/2000/svg" xmlns:xlink="http://www.w3.org/1999/xlink" x="0px" y="0px"
	 viewBox="0 0 1096 780" style="enable-background:new 0 0 1096 780;" xml:space="preserve">
<path d="M31.548,136.071c12.245,25.199,34.399,44.757,60.577,54.158c-20.612,0.944-40.755,7.164-58.403,18.178
	c-1.408,0.826-2.412,0.826,0.514,4.294c17.888,22.399,44.31,36.717,72.687,39.478c-19.981,8.251-35.171,26.69-38.814,48.243
	c-0.027,2.528,0.882,2.774,2.525,3.545c19.042,8.88,40.276,11.433,60.772,7.302c-10.088,11.807-15.667,26.857-15.669,42.51
	c-0.171,2.902-0.171,2.902,2.272,3.714c17.194,7.391,36.616,7.441,53.694,0.29c-6.347,10.702-1.379,36.224-1.379,36.224
	c16.328-0.806,34.721-6.799,45.892-18.516c-0.214,7.057,3.471,20.233,4.792,24.709c0.251,0.849,0.146,1.644,1.991,1.066
	c17.823-5.585,35.091-17.089,45.386-32.371c-0.61,5.709-0.713,11.444-0.553,17.24c0.18,6.515,0.944,5.49,2.797,4.485
	c24.712-13.406,51.27-28.021,76.82-39.783c15.653-7.206,33.155-12.601,50.381-12.281c5.934,1.282,7.114-3.99,1.217-4.187
	c-28.186-6.127-54.203-20.936-76.042-39.826c-53.303-46.108-81.207-112.989-120.943-169.677
	C165.792,73.121,113.21,24.215,46.199,24.215c-2.036,0-2.474,0.556-2.534,2.048c-1.558,38.967,17.83,77.188,49.293,99.671
	c-20.031-4.655-41.164-2.737-60.256,5.714C30.061,132.562,30.329,133.634,31.548,136.071z"/>
<g>
	<path d="M537.086,318.891c15.448-1.232,30.895-2.464,46.342-3.696l-32.035-39.081c0,0,46.296,7.684,65.858,11.763
		c-2.193-15.785-4.386-31.571-6.58-47.356c0,0,34.533,16.086,49.765,24.833c1.681-13.699,3.897-27.343,5.042-41.097
		c0.674-8.087,2.813-5.838,5.318-1.316c30.647,55.311,36.517,122.421,18.595,183.092c-0.349,1.182-1.341,1.687-2.312,1.673
		c-0.365,1.058-0.731,2.115-1.096,3.173c-0.512,1.481-2.51,2.594-3.806,1.171c-38.93-42.729-89.661-73.638-145.519-88.521
		C528.815,321.313,531.433,320.14,537.086,318.891z"/>
	<path d="M508.449,233.384c15.48-3.129,30.96-6.258,46.44-9.387c-1.818-12.032-5.041-39.527-3.399-39.398
		c17.533,1.376,34.886,3.996,52.028,7.89c-0.337-11.642,3.411-37,3.411-37c23.805,22.172,41.202,50.431,50.241,81.69
		c0.319,0.451,0.467,1.039,0.308,1.74l-1.739,15.493c-17.991-8.573-40.128-19.862-58.119-28.435
		c2.547,18.836,6.727,30.637,9.858,49.952c0.602,3.714,2.503,5.2-3.916,3.418c-19.927-5.532-40.204-9.147-60.827-10.02
		c5.983,13.766,26.115,40.562,26.115,40.562l-64.546,9.036c-18.35-10.152-30.396-33.155-40.631-45.244
		c0,0,38.389,0.295,55.23-10.623C517.045,253.74,508.449,233.384,508.449,233.384z"/>
	<path d="M421.561,249.575c-21.188-7.529-39.685-21.047-53.382-38.771c27.646,0.199,55.29-0.241,82.917-1.335
		c7.213-0.285,8.147-0.829,1.055-4.418c-20.162-10.204-38.666-23.867-55.754-38.58c22.631,2.637,72.022,1.681,72.022,1.681
		c-12.475-12.65-25.784-28.839-36.429-43.042c21.588,5.937,43.403,10.973,65.417,15.084c0,0-51.895-28.064-70.388-65.311
		c29.081,13.992,62.108,17.329,91.716,30.196c30.479,13.245,57.515,33.773,78.542,59.492c-1.305,5.676-0.352,14.148-0.626,19.955
		c-16.036-3.436-34.482-6.324-50.813-7.672c0,0-0.793,27.921,0.938,40.665l-46.245,13.355c3.006,8.712,6.011,17.425,9.017,26.137
		c-65.414,19.187-107.445,4.544-107.445,4.544s12.503-2.037,17.912-3.406C431.348,255.283,434.995,254.349,421.561,249.575z"/>
	<path d="M291.508,30.093c35.189,31.98,81.482,49.588,129.06,51.041c0.075,0.002,0.14,0.019,0.212,0.027
		c24.534,33.085,50.096,47.97,48.219,48.275c-0.384,0.166-0.835,0.228-1.349,0.126c-14.893-2.965-29.595-6.692-44.102-11.158
		c5.181,15.657,13.869,30.866,26.817,41.245c5.222,4.186,3.356,3.764-1.426,3.417c-20.15-1.462-40.339-1.934-60.533-1.509
		c10.256,16.243,24.586,29.71,41.58,38.695c5.699,3.013,4.784,3.59-0.454,3.542c-23.223-0.217-46.374,1.555-69.332,4.996
		c12.226,20.96,24.802,31.258,53.335,44.22c-36.174,10.413-93.475-24.122-98.007-63.048c-0.311-2.674,19.218,6.945,37.258,1.367
		c-17.13-15.01-45.348-47.034-45.398-75.056c18.508,7.047,46.204,12.776,56.59,10.365c-33.662-21.302-79.701-52.402-76.938-95.76
		C287.432,27.035,287.329,25.898,291.508,30.093z"/>
</g>
<g>
	<path d="M1037.616,17.813c0.717-0.303,0.296-1.385-0.44-1.13c-68.964,23.901-135.757,56.733-191.085,104.843
		c-51.141,44.47-90.883,102.302-108.777,168.069c-9.748,35.827-12.457,73.465-6.581,110.185c0.145,0.909,0.724,1.463,1.409,1.706
		c0.194,0.38,0.538,0.704,1.086,0.892c20.404,6.995,46.327,15.28,65.773,1.278c7.021-5.055,12.674-12.718,14.005-21.335
		c1.804-11.677-4.22-23.052-15.297-27.563c-14.228-5.794-33.211,2.976-38.172,17.514c-2.121,6.215,0.649,13.985,5.749,18.678
		c4.453,4.097,11.035,6.153,17.6,0.643c0.281-2.761,0.712-6.786,3.224-8.509c2.796-1.918,6.233,0.214,5.83,3.557
		c-0.209,1.737-1.067,3.115-2.153,4.441c-3.597,4.389-9.448,6.565-14.936,7.195c-10.612,1.219-20.817-3.425-30.274-7.615
		c-0.359-0.159,2.684-0.339,2.365-0.317c1.715-32.429,1.177-64.819,8.583-96.501c7.548-32.291,20.346-62.858,38.985-90.334
		c37.943-55.934,87.615-103.184,144.686-137.942C968.172,47.921,1013.519,27.985,1037.616,17.813z"/>
	<path d="M1065.43,15.049c-62.869,22.916-124.062,52.185-175.618,95.2c-45.45,37.92-83.47,85.044-107.956,139.122
		c-13.31,29.397-22.169,60.674-26.365,92.686c-1.544,11.78-0.414,14.075,1.444,13.316c20.044-21.664,48.939-13.688,58.573,7.784
		c21.856,4.737,47.293-11.323,47.293-11.323c-11.849-0.131-23.407-2.93-33.928-8.155c34.708-2.709,73.47-19.715,101.304-40.812
		c0,0-47.862,7.874-67.613,4.199c45.096-12.508,87.435-33.394,125.599-60.544c2.967-2.111,3.747-3.835-1.614-2.251
		c-31.087,9.189-63.989,12.116-96.302,14.305c53.364-24.64,103.946-55.043,150.72-90.669c1.227-0.934,8.879-6.862-1.488-1.975
		c-41.445,19.54-85.718,32.329-127.111,51.968c53.232-42.078,105.331-85.575,156.221-130.46c6.561-6.04,2.281-4.236-1.731-2.825
		c-40.078,11.688-78.908,27.415-114.726,48.686c40.012-29.594,81.498-58.137,125.594-81.279c4.788-2.203,4.432-2.641-0.634-2.069
		c-41.311,7.82-81.31,21.171-118.963,39.66c34.971-26.162,71.311-50.457,108.867-72.776
		C1071.125,14.386,1068.887,13.789,1065.43,15.049z"/>
</g>
<g>
	<path d="M458.852,658.076c-0.184-1.222-1.376-2.252-2.65-1.482c1.384,1.076,2.281,2.266,2.856,3.346
		C459.297,659.361,459.209,658.644,458.852,658.076z"/>
	<path d="M313.809,680.091l-0.133-0.039l-0.131-0.047c-0.443-0.16-0.852-0.305-1.227-0.439c-3.028-1.076-6.159-2.189-6.235-5.828
		c-0.04-1.929,0.789-3.18,2.054-4.122c-16.157-1.805-31.779-6.364-46.614-13.62l-0.099-0.048l-0.096-0.053
		c-2.701-1.481-6.399-3.51-5.379-7.491c0.293-1.145,1.436-3.807,5.701-3.807c0.684,0,1.515,0.051,2.613,0.16
		c1.656,0.164,3.358,0.248,5.057,0.248c6.117,0,12.062-1.068,17.605-2.64c-19.525-4.199-37.751-13.462-52.626-26.946l-0.052-0.047
		l-0.05-0.049c-0.416-0.401-0.801-0.763-1.148-1.09c-2.118-1.997-4.519-4.26-3.197-7.589c0.48-1.209,1.821-3.237,5.411-3.237
		c0.798,0,1.795,0.076,3.544,0.272c0.663,0.059,1.348,0.107,2.06,0.145c-12.951-6.887-24.353-16.539-33.207-28.287
		c-0.472-0.616-0.948-1.172-1.368-1.662c-1.316-1.536-3.303-3.857-1.909-6.887c0.317-0.688,1.606-2.933,4.892-2.933
		c1.159,0,2.619,0.247,6.009,1.016l0.054,0.012l0.054,0.013c1.95,0.491,3.965,0.895,6.023,1.235
		c-7.294-4.717-14.22-10.142-20.727-16.238c-12.104-11.342-22.476-24.739-30.829-39.82c-2.041-3.685-3.653-6.595-1.939-9.503
		c0.91-1.544,2.544-2.466,4.371-2.466c1.866,0,3.603,0.941,6.157,2.677c8.697,5.912,18.501,11.158,28.835,15.511
		c-12.35-8.597-23.836-18.542-34.364-29.769c-13.614-14.518-25.205-30.728-34.645-48.405
		C95.101,406.987,50.447,370.142,20.45,338.302c-3.145-4.421-3.994-2.843-2.465,1.34c5.996,16.4,12.345,32.889,21.898,47.6
		c9.162,14.11,21.309,25.712,34.314,36.254c24.577,19.921,50.051,38.823,75.303,57.924c-32.293-16.683-62.945-36.43-91.446-59.025
		c-4.34-3.38-3.066-1.256-3.577,1.454c-5.117,29.793,21.915,49.249,43.326,64.008c15.17,10.458,30.698,20.383,46.521,29.812
		c-23.489-10.703-47.589-22.17-70.6-33.878c-4.355-2.216-3.531-0.866-2.688,1.347c22.698,59.601,88.585,78.455,140.764,105.036
		c-29.035-9.919-59.041-18.868-88.076-28.787c-5.326-1.98-4.193-0.281-2.339,2.577c30.071,41.954,73.024,73.809,121.678,90.56
		c-18.314-3.428-37.195-7.803-54.456-14.95c-3.301-1.204-3.786-1.366-1.593,2.122c18.467,27.369,48.111,45.99,80.474,51.182
		c-7.75-0.095-16.442,0.03-24.096-1.572c-4.364-0.914-3.231-0.266-1.059,2.564c21.44,23.669,53.767,35.695,85.375,32.29
		c-3.364,2.683-7.2,5.597-11.416,6.773c-5.5,1.715-4.529,1.877,0.134,3.022c46.065,9.027,80.907-24.41,114.22-53.675
		c-17.753,4.518-36.008,6.802-54.48,6.802C354.986,689.082,334.006,686.057,313.809,680.091z"/>
	<path d="M448.277,658.308c-1.327-0.249-2.832-0.391-4.533-0.391c-0.573,0-1.164,0.015-1.779,0.047
		c-2.463,0.128-4.979,0.237-7.517,0.307c-1.025,0.028-2.053,0.048-3.085,0.06c-0.054,0.001-0.107,0.001-0.16,0.002
		c-0.558,0.006-1.115,0.016-1.674,0.016c-9.101,0-18.354-0.831-26.789-3.892c-3.291-1.194-6.461-2.717-9.444-4.678
		c-6.127-4.028-11.41-9.878-14.002-16.806c-2.984-7.976-1.253-15.591,2.471-22.952c5.4-10.674,12.917-20.97,9.699-33.556
		c-3.217-12.586-14.587-21.383-24.859-28.218c-48.552-32.305-103.562-53.028-154.312-81.398
		c-28.615-15.996-58.859-31.97-78.681-58.222c-0.777-1.028-1.405-1.428-1.885-1.428c-1.144,0-1.442,2.269-0.889,3.69
		c4.604,11.832,10.135,23.188,16.518,33.955c22.942,38.697,56.912,69.771,98.606,87.854c-24.348-4.087-49.661-13.901-70.155-27.832
		c-1.858-1.263-2.981-1.864-3.516-1.864c-0.918,0-0.11,1.767,1.678,4.995c16.007,28.9,40.304,52.449,70.52,65.299
		c-9.824-0.827-20.642-1.226-30.244-3.643c-2.649-0.601-4.193-0.899-4.971-0.899c-1.635,0,0.116,1.319,2.114,3.928
		c13.204,17.518,31.965,29.834,52.837,35.229c-6.06,0.145-12.721,0.716-19.102,0.716c-2.314,0-4.59-0.075-6.788-0.272
		c-1.398-0.157-2.403-0.248-3.071-0.249c-2.182,0-0.779,0.975,2.191,3.834c18.903,17.134,43.176,27.017,68.507,28.171
		c-10.949,5.042-23.406,9.594-36.64,9.594c-1.827,0-3.667-0.087-5.521-0.271c-0.914-0.091-1.625-0.137-2.149-0.137
		c-2.17,0-1.148,0.79,1.937,2.481c18.943,9.265,39.57,14.027,60.535,14.027c0.758,0,1.514-0.006,2.274-0.019
		c-3.525,2.091-8.393,4.946-12.391,6.147c-4.675,1.884-4.243,1.713,1.135,3.654c19.88,5.872,40.459,8.798,61.027,8.798
		c21.192,0,42.372-3.114,62.777-9.303c2.535-0.769,5.059-1.577,7.568-2.441c7.283-2.507,10.167-7.03,8.451-10.404
		C454.05,660.441,451.833,658.974,448.277,658.308z"/>
</g>
<path d="M713.809,612.235c-0.127-0.979-0.882-1.841-2.129-1.581c-11.893,2.484-23.978,0.449-34.232-5.599
	c-0.118-0.323-0.365-0.621-0.772-0.854c-13.22-7.573-21.749-21.203-23.941-36.183c-1.096-7.486-0.602-15.281,1.825-22.47
	c2.861-8.476,8.471-15.393,14.424-21.915c10.89-11.93,24.746-25.517,22.786-43.223c-1.743-15.744-16.578-25.519-30.961-28.389
	c-9.567-1.909-19.482-1.423-29.154-0.76c-10.075,0.691-20.112,1.858-30.109,3.274c-20.639,2.923-41.109,6.9-61.726,9.963
	c-40.443,6.009-83.696,8.499-122.079-8.182c-33.462-14.542-68.942-50.506-66.464-88.362c0.451-6.888-3.994-3.249-5.09-1
	c-17.86,36.686-6.265,82.007,21.58,110.396c31.139,31.747,76.954,43.316,120.29,41.215c24.07-1.166,47.711-6.236,70.782-13.034
	c-23.045,18.199-51.341,29.35-80.763,31.312c-35.104,2.34-70.378-8.916-98.142-30.33c-4.81-4.503-3.989-1.799-3.96,1.81
	c-0.671,29.981,25.049,52.338,52.097,60.942c30.876,9.822,65.353,8.721,96.248-0.359c16.554-4.865,32.243-12.176,46.638-21.643
	c-2.106,19.977-13.982,38.677-31.909,48.2c-20.88,11.091-49.226,8.124-67.878-6.138c-5.279-4.037-3.979-1.829-3.662,2.42
	c2.069,27.751,31.766,43.564,56.543,46.241c25.361,2.741,50.355-6.847,67.743-24.995c-7.824,20.082-25.121,37.025-45.98,43.123
	c-5.659,1.654-4.231,1.986-0.465,3.134c26.323,8.017,48.406-8.189,66.195-26.01c-8.672,17.086-11.393,37.068-6.752,55.835
	c5.245,21.214,19.256,39.697,38.11,50.675c2.925,1.25,3.543,1.537,1.813-1.821c-13.258-22.095-12.653-51.389-0.605-74.004
	c1.239,18.332,12.232,35.207,28.912,43.553c3.388,1.696,5.165,2.038,1.792-1.276c-13.521-13.284-13.817-36.383-6.024-53.072
	c8.588-18.393,26.691-30.262,45.052-37.369C715.605,615.078,715.146,612.878,713.809,612.235z"/>
<g>
	<path d="M932.413,695.221c-9.068,5.76-18.458,11.011-28.028,15.681c-0.006,0.398,0.002,0.802,0.039,1.219
		c0.456,5.172,4.347,7.391,8.666,7.391c1.516,0,3.085-0.274,4.577-0.789c5.518-1.906,10.87-4.755,15.924-8.193
		c-0.674-0.899-1.125-2.005-1.277-3.252C931.828,703.266,931.866,699.208,932.413,695.221z"/>
	<path d="M896.156,709.767c-1.216-1.419-1.743-3.329-1.447-5.241c0.377-2.432,0.874-4.84,1.487-7.214
		c-8.074,4.656-16.746,8.115-25.904,10.326c-0.497,0.12-1.005,0.181-1.509,0.181c-1.847,0-3.568-0.809-4.752-2.217
		c-0.381,0.895-0.747,1.794-1.094,2.697c-2.684,6.979,1.287,12.594,8.637,12.769c0.151,0.004,0.304,0.005,0.455,0.005
		c7.664,0,15.804-4.538,22.219-8.233c1.083-0.624,2.151-1.272,3.206-1.94C896.976,710.585,896.536,710.21,896.156,709.767z"/>
	<path d="M862.701,700.151c0.861-3.924,1.936-7.796,3.218-11.594c-5.877,3.517-12.139,6.379-18.727,8.554
		c-0.63,0.208-1.278,0.314-1.925,0.314c-2.099,0-4.025-1.103-5.153-2.949c-1.167-1.911-1.271-4.31-0.27-6.261l9.23-17.985
		c-8.098,5.638-16.865,10.274-26.221,13.854c-0.659,0.252-1.351,0.38-2.058,0.38c-2.015,0-3.933-1.033-5.131-2.764
		c-1.144-1.653-1.421-3.716-0.742-5.519c1.55-4.117,3.249-8.189,5.087-12.199c-7.981,5.745-15.977,10.243-24.152,13.602
		c-0.71,0.292-1.453,0.44-2.21,0.44c-1.32,0-2.578-0.456-3.624-1.27c-2.791,4.623-5.569,9.254-8.295,13.913
		c-2.7,4.614-5.203,9.729-4.195,15.225c0.839,4.571,4.084,8.3,8.764,9.094c0.666,0.113,1.334,0.166,2.002,0.166
		c4.423,0,8.823-2.315,12.319-4.783c5.189-3.662,9.944-8.083,14.566-12.422c4.28-4.018,8.37-8.221,12.297-12.57
		c-1.738,3.946-3.264,7.979-4.526,12.086c-2.278,7.414-2.706,18.413,6.694,20.888c1.142,0.301,2.301,0.438,3.467,0.438
		c8.496,0,17.395-7.298,23.505-11.887c2.038-1.531,4.023-3.122,5.96-4.765C862.522,701.482,862.555,700.814,862.701,700.151z"/>
	<path d="M789.957,676.702c-0.409-0.327-0.787-0.704-1.118-1.139c-1.214-1.596-1.633-3.648-1.123-5.491
		c1.775-6.407,3.895-12.689,6.352-18.83c-12.242,13.023-26.467,23.456-46.444,24.893c-0.148,0.011-0.294,0.016-0.438,0.016
		c-2.122,0-4.048-1.11-5.152-2.97c-1.155-1.946-1.212-4.364-0.15-6.31c6.017-11.022,12.644-22.379,20.152-34.505
		c-2.025,1.262-4.207,2.256-6.586,2.844c-1.351,0.334-2.805,0.832-4.21,1.315c-2.511,0.862-4.883,1.676-7.018,1.676
		c-2.576,0-4.087-1.154-4.902-2.123c-2.004-2.382-1.454-5.543-1.274-6.581c0.177-1.015,0.418-2.083,0.715-3.196
		c-12.98,17.464-24.222,36.197-33.427,55.943c-3.029,6.496-6.094,13.123-8.452,19.898c-1.751,5.031-2.224,11.574,2.657,15.084
		c1.452,1.044,2.94,1.476,4.413,1.476c3.691,0,7.287-2.708,9.997-5.272c5.816-5.5,11.373-11.312,16.85-17.146
		c3.413-3.636,6.766-7.326,10.07-11.058c-0.521,0.891-1.046,1.778-1.559,2.674c-3.52,6.144-6.899,12.384-10.018,18.742
		c-1.981,4.039-4.161,9.163-2.088,13.596c1.565,3.346,3.879,4.603,6.488,4.603c6.064,0,13.729-6.779,17.351-9.853
		c10.352-8.788,20.225-18.138,29.561-27.999C783.791,683.622,786.901,680.186,789.957,676.702z"/>
	<path d="M971.564,690.646c-2.542,0-4.908-0.476-7.034-1.414c-1.509-0.666-2.834-1.481-3.992-2.419
		c-1.689-1.368-3.007-3.013-3.938-4.909c-1.508-3.072-2.017-6.793-1.48-11.041c-2.701,1.143-5.608,2.228-8.633,3.124
		c-0.861,0.255-1.732,0.496-2.611,0.717c-0.904,0.227-1.815,0.437-2.733,0.621c-2.948,0.592-5.959,0.945-8.967,0.945
		c-8.077,0-15.275-2.508-21.395-7.454c-4.063-3.284-7.828-7.927-9.269-14.313c-0.177-0.783-0.321-1.591-0.424-2.428
		c-0.093-0.753-0.153-1.528-0.18-2.325c-0.14-4.114,0.626-8.823,2.681-14.203c-3.206,1.027-6.271,1.534-9.237,1.534
		c-5.958,0-11.288-2.097-15.841-6.233c-6.578-5.976-8.538-15.98-4.992-25.485c0.448-1.201,0.979-2.383,1.596-3.548
		c-0.915-0.058-1.823-0.165-2.716-0.321c-8.377-1.456-14.787-7.575-16.333-15.589c-1.375-7.133,0.31-13.12,3.189-18.415
		c-1.097,0.131-2.203,0.198-3.302,0.198c-8.414,0-15.619-3.825-19.271-10.231c-5.406-9.481-1.772-20.889,3.431-28.403
		c0.282-0.408,0.571-0.809,0.864-1.204c-1.966-0.133-3.92-0.525-5.828-1.171c-5.537-1.873-9.737-5.508-11.825-10.237
		c-0.213-0.483-0.392-0.974-0.556-1.469c-23.99,26.846-52.011,60.939-68.006,87.225c-0.684,1.124-1.338,2.229-1.977,3.323
		c-1.863,3.191-3.526,6.25-4.962,9.148c-2.94,5.935-4.93,11.203-5.684,15.54c-0.503,2.89,0.396,3.836,2.081,3.836
		c2.405,0,6.411-1.926,10.232-2.869c8.458-2.089,14.655-11.092,20.205-17.151c5.321-5.81,10.553-11.701,15.713-17.652
		c-15.912,23.557-31.207,47.518-44.839,72.491c-0.685,1.256,0.107,3.132,1.654,3.132c0.046,0,0.093-0.002,0.141-0.005
		c33.532-2.412,50.07-32.224,70.563-55.806c-11.793,16.628-20.695,35.24-26.168,54.998c-0.33,1.191,0.674,2.684,1.926,2.684
		c0.205,0,0.416-0.04,0.63-0.128c14.834-6.096,27.513-15.402,39.043-26.128c-5.709,9.526-10.569,19.571-14.509,30.034
		c-0.464,1.233,0.728,2.662,1.983,2.662c0.191,0,0.384-0.033,0.573-0.105c15.322-5.863,29.093-14.743,40.661-26.111
		c-6.162,12.007-12.325,24.015-18.487,36.022c-0.685,1.334,0.246,3.156,1.725,3.156c0.198,0,0.406-0.033,0.622-0.104
		c10.852-3.583,20.772-9.135,29.381-16.349c-3.295,6.649-5.879,13.641-7.714,20.878c-0.079,0.311-0.151,0.624-0.227,0.936
		c-0.196,0.802-0.391,1.605-0.568,2.413c-0.303,1.382,0.689,2.621,2.023,2.621c0.173,0,0.351-0.021,0.534-0.065
		c12.731-3.073,24.585-8.748,34.915-16.62c-2.611,5.76-4.433,11.851-5.415,18.185c-0.224,1.443,0.745,2.598,2.014,2.598
		c0.331,0,0.683-0.079,1.039-0.251c0.558-0.271,1.11-0.553,1.667-0.827c0.73-0.36,1.46-0.72,2.187-1.086
		c11.599-5.841,22.764-12.464,33.449-19.833c-2.64,6.62-3.606,13.791-2.73,21.015c0.065,0.538,0.254,0.981,0.533,1.321
		c0.378,0.46,0.926,0.724,1.606,0.724c0.157,0,0.321-0.014,0.492-0.042c0.203-0.034,0.401-0.073,0.603-0.108
		c1.481-0.257,2.931-0.546,4.352-0.868c15.821-3.583,28.118-11.095,40.821-20.209c-0.073,0.027-0.145,0.055-0.218,0.082
		C980.487,689.18,976.068,690.646,971.564,690.646z"/>
	<path d="M1039.673,601.174c-7.702,9.967-16.317,18.692-25.681,26.029c-0.775,0.607-1.555,1.207-2.34,1.795
		c-0.855,0.64-1.716,1.267-2.582,1.884c-0.664,0.473-1.331,0.942-2.002,1.402c-11.971,8.198-23.469,12.354-34.174,12.354
		c-3.821,0-7.553-0.547-11.091-1.625c-13.446-4.097-23.846-16.11-25.881-29.892c-0.181-1.226-0.29-2.457-0.343-3.689
		c-0.037-0.862-0.049-1.725-0.025-2.586c0.023-0.816,0.08-1.632,0.159-2.446c0.117-1.208,0.287-2.413,0.525-3.609
		c-1.391,0.375-2.782,0.644-4.179,0.831c-0.125,0.017-0.249,0.044-0.374,0.059c-0.873,0.107-1.75,0.162-2.624,0.193
		c-0.349,0.012-0.699,0.032-1.046,0.032c-0.773,0-1.532-0.04-2.284-0.097c-8.346-0.637-15.292-4.763-19.272-11.559
		c-2.343-3.999-3.628-8.167-3.883-12.487c-0.066-1.112-0.059-2.234,0.013-3.365c0.063-0.98,0.173-1.967,0.339-2.962
		c0.828-4.958,2.93-10.096,6.323-15.402c-0.817-0.055-1.623-0.155-2.411-0.301c-8.023-1.478-14.033-8.079-14.955-16.425
		c-0.622-5.63,0.435-10.807,3.233-15.826c0.427-0.766,0.886-1.511,1.37-2.236c-9.627-0.376-17.531-5.812-20.307-14.064
		c-2.836-8.427-0.223-18.813,6.99-27.783c0.826-1.027,1.687-2.01,2.571-2.959c-1.324-0.209-2.637-0.542-3.926-0.997
		c-5.063-1.788-8.82-5.363-10.58-10.066c-0.681-1.821-1.043-3.752-1.108-5.726c-15.803,10.528-30.234,23.898-40.308,39.457
		c-0.908,1.403-1.728,2.905-2.367,4.465c-0.596,1.454-1.027,2.959-1.225,4.483c-0.135,1.033-0.157,2.074-0.048,3.115
		c0.126,1.204,0.421,2.406,0.945,3.591c1.735,3.93,5.352,6.625,9.355,7.979c2.049,0.693,4.054,1.003,6.01,1.003
		c3.561,0,6.961-1.027,10.178-2.635c-3.243,3.262-6.509,6.51-9.14,10.31c-4.664,6.737-7.572,16.376-3.237,23.979
		c3.218,5.644,9.442,8.134,15.66,8.134c1.322,0,2.642-0.112,3.935-0.331c3.945-0.667,7.467-2.324,10.69-4.512
		c-6.282,7.821-12.507,15.666-10.431,26.43c1.263,6.55,6.479,11.154,12.963,12.281c1.225,0.213,2.436,0.311,3.633,0.311
		c2.472,0,4.882-0.418,7.236-1.103c-2.767,2.993-5.115,6.32-6.565,10.208c-2.66,7.131-1.98,15.621,3.893,20.957
		c4.06,3.688,8.51,5.153,13.046,5.153c6.226,0,12.613-2.761,18.372-6.322c-4.811,7.83-8.492,16.763-7.468,24.983
		c0.103,0.828,0.255,1.648,0.457,2.459c0.221,0.888,0.5,1.766,0.849,2.63c1.291,3.192,3.487,6.202,6.833,8.907
		c5.827,4.71,12.231,6.531,18.782,6.531c1.246,0,2.496-0.066,3.75-0.191c1.049-0.104,2.099-0.257,3.15-0.439
		c0.969-0.168,1.937-0.364,2.905-0.591c6.701-1.57,13.333-4.468,19.444-7.584c-3.176,8.056-4.524,18.012,4.785,22.119
		c1.716,0.757,3.523,1.06,5.356,1.06c3.97,0,8.067-1.419,11.648-2.717c5.567-2.018,10.951-4.56,16.038-7.592
		c1.255-0.748,2.489-1.527,3.704-2.331c2.785-1.842,5.464-3.826,8.027-5.942c2.302-1.901,4.512-3.906,6.619-6.009
		c12.125-12.105,20.901-27.424,24.908-44.281c1.863-7.839,2.696-15.855,2.537-23.856
		C1043.331,596.284,1041.542,598.757,1039.673,601.174z"/>
	<path d="M1057.441,553.066c-0.041,0-0.082,0.001-0.123,0.005c-3.451,0.265-6.902,0.529-10.354,0.794
		c-3.289,4.905-6.941,9.875-11.01,14.443c-0.666,0.748-1.345,1.483-2.034,2.207c-0.704,0.74-1.417,1.468-2.145,2.179
		c-0.452,0.441-0.906,0.877-1.367,1.305c-10.288,9.552-21.054,14.196-32.914,14.196c-1.776,0-3.596-0.11-5.408-0.326
		c-12.698-1.516-22.87-8.554-27.21-18.828c-1.617-3.828-2.418-7.941-2.431-12.199c-0.002-0.766,0.017-1.536,0.066-2.31
		c0.047-0.742,0.122-1.487,0.216-2.236c0.279-2.216,0.756-4.456,1.446-6.705c-0.811,0.077-1.618,0.116-2.419,0.116
		c-2.64,0-5.206-0.426-7.628-1.265c-7.004-2.428-12.535-8.622-14.795-16.571c-3.531-12.414,1.185-22.9,6.891-30.83
		c-0.914-0.232-1.817-0.516-2.706-0.854c-9.542-3.623-14.958-12.598-14.133-23.423c0.866-11.354,6.303-22.476,11.207-30.402
		c-1.645,0.324-3.357,0.507-5.144,0.507c-1.165,0-2.352-0.079-3.526-0.234c-6.97-0.922-12.657-5.035-15.211-11.001
		c-2.21-5.16-1.882-11.154,0.922-17.479c-4.708,3.49-9.369,7.042-13.958,10.69c-5.278,4.195-10.473,8.494-15.582,12.894
		c-4.277,3.683-8.585,7.572-11.4,12.545c-0.1,0.176-0.179,0.357-0.273,0.535c-0.553,1.05-0.999,2.126-1.338,3.215
		c-0.293,0.941-0.511,1.888-0.64,2.833c-0.849,6.203,1.866,12.222,8.762,14.658c2.006,0.709,3.97,1.023,5.887,1.023
		c2.114,0,4.168-0.389,6.161-1.048c0.655-0.217,1.304-0.46,1.946-0.733c0.289-0.123,0.577-0.247,0.864-0.38
		c-0.256,0.242-0.514,0.481-0.772,0.722c-0.571,0.534-1.144,1.065-1.72,1.596c-3.2,2.95-6.419,5.895-9.157,9.3
		c-5.154,6.41-9.062,15.617-6.29,23.853c2.503,7.44,9.951,11.254,17.442,11.254c0.357,0,0.714-0.009,1.071-0.026
		c3.091-0.15,5.988-0.892,8.732-2.024c-6.702,6.484-12.493,13.44-11.349,23.791c0.707,6.4,5.144,11.609,11.577,12.794
		c1.046,0.193,2.095,0.281,3.141,0.281c2.666,0,5.321-0.576,7.899-1.478c-6.491,7.549-12.014,16.46-11.957,25.789
		c0.008,1.222,0.112,2.452,0.321,3.686c0.269,1.586,0.714,3.18,1.356,4.778c0.462,1.148,1.017,2.297,1.691,3.448
		c2.228,3.804,5.516,6.43,9.304,7.964c1.415,0.573,2.898,0.996,4.425,1.266c1.168,0.206,2.361,0.321,3.565,0.353
		c0.225,0.006,0.45,0.018,0.676,0.018c1.051,0,2.109-0.065,3.166-0.194c4.269-0.522,8.179-2.012,11.844-4.024
		c-2.048,4.251-3.216,8.912-3.318,13.689c-0.018,0.842-0.003,1.687,0.047,2.534c0.052,0.887,0.139,1.776,0.268,2.666
		c0.004,0.031,0.007,0.062,0.012,0.094c1.804,12.217,11.188,22.93,22.981,26.523c3.273,0.997,6.583,1.444,9.879,1.444
		c10.168,0,20.224-4.25,28.849-9.678c1.011-0.636,2.007-1.285,2.976-1.949c0.074-0.05,0.146-0.103,0.219-0.154
		c0.964-0.663,1.916-1.343,2.862-2.033c10.81-7.884,20.418-17.468,28.584-28.036c2.961-3.831,5.715-7.804,8.269-11.897
		c0.601-0.964,1.193-1.933,1.771-2.91c0.579-0.977,1.148-1.959,1.704-2.949c4.496-8.012,8.238-16.441,11.193-25.177
		C1059.72,554.524,1058.693,553.066,1057.441,553.066z"/>
	<path d="M932.465,438.513c1.018,0.135,2.011,0.198,2.981,0.198c6.821,0,12.508-3.143,18.084-6.719
		c-2.96,3.288-5.686,6.793-8.121,10.532c-5.777,8.872-11.066,19.856-11.881,30.555c-0.653,8.572,3.277,16.114,11.464,19.222
		c2.335,0.886,4.817,1.335,7.28,1.335c0.713,0,1.424-0.038,2.13-0.113c-8.254,9.301-14.733,20.338-11.072,33.21
		c1.754,6.169,5.966,11.634,12.159,13.781c2.06,0.714,4.166,1.036,6.267,1.036c3.203,0,6.394-0.748,9.396-1.993
		c-2.423,4.638-4.064,9.698-4.463,14.82c-0.058,0.753-0.097,1.506-0.099,2.26c-0.003,0.783,0.029,1.565,0.09,2.348
		c0.22,2.846,0.862,5.68,2.027,8.438c4.098,9.699,13.745,15.109,23.874,16.318c1.676,0.2,3.316,0.297,4.915,0.297
		c10.969,0,20.164-4.538,28.04-11.271c0.783-0.669,1.554-1.357,2.311-2.068c0.731-0.686,1.448-1.392,2.156-2.112
		c4.267-4.34,8.123-9.258,11.651-14.315c0.51-0.731,1.011-1.465,1.507-2.2c0.494-0.731,0.981-1.464,1.462-2.196
		c1.359-2.07,4.115-11.343,3.333-11.343c-0.599,0-27.312-1.488-38.699-7.485c-12.502-6.585-21.421-17.941-21.705-32.456
		c-0.576-29.477,25.166-50.416,31.026-78.104c4.421-20.892-5.539-46.361-29.814-46.634c-0.153-0.002-0.306-0.003-0.458-0.003
		c-13.08,0-26.097,6.26-36.989,12.995c-4.379,2.708-8.966,5.797-13.28,9.266c-1.938,1.558-3.817,3.194-5.599,4.91
		c-2.245,2.161-4.329,4.445-6.168,6.859c-1.337,1.754-2.553,3.569-3.595,5.458c-2.761,5.008-4.501,11.151-2.143,16.657
		C922.638,434.921,927.263,437.825,932.465,438.513z"/>
</g>
<g>
	<g>
		<g>
			<path d="M568.303,748.295c0.481,0,0.924,0.42,0.924,0.42l-7.937,16.953c-0.869,0-2.956,0.124-3.465,0.124
				c-0.48,0-0.924-0.419-0.924-0.419l-2.714-16.953c1.646,0,3.704-0.124,4.32-0.124c0.483,0,0.924,0.42,0.924,0.42l0.83,8.293
				c0.071,0.715,0.077,1.706,0.048,2.75c0.267-1.14,0.561-2.219,0.848-2.948l3.299-8.394c1.463,0,3.279-0.122,3.844-0.122H568.303z"
				/>
		</g>
		<g>
			<path d="M576.481,756.659c0,1.846-1.031,3.066-3.598,3.595l-2.694,0.556c0.207,1.161,0.937,1.729,2.148,1.729
				c1.484,0,2.477-1.12,2.477-1.12s0.757,0.422,0.757,1.289c0,1.538-2.359,3.206-5.102,3.206c-2.783,0-4.6-1.759-4.6-4.729
				c0-3.431,2.431-8.085,6.757-8.085C574.997,753.1,576.481,754.503,576.481,756.659L576.481,756.659z M571.927,758.432
				c0.574-0.181,0.747-0.655,0.747-1.198c0-0.511-0.165-1.274-0.758-1.274c-1.068,0-1.538,1.724-1.708,3.017L571.927,758.432z"/>
		</g>
		<g>
			<path d="M583.734,753.1c2.183,0,3.823,1.157,3.823,2.659c0,1.878-2.274,2.565-2.274,2.565s-0.667-2.051-2.196-2.051
				c-1.036,0-1.632,1.048-1.632,3.282c0,2.058,0.541,2.984,1.873,2.984c1.366,0,2.207-0.93,2.207-0.93s0.758,0.421,0.758,1.265
				c0,1.472-2.265,3.041-4.903,3.041c-2.809,0-4.539-1.759-4.539-4.682c0-3.477,2.486-8.132,6.884-8.132H583.734z"/>
		</g>
		<g>
			<path d="M594.222,750.36c0.526,0,0.876,0.401,0.876,0.401l-0.411,2.586h2.739l-0.618,1.971c-0.2,0.635-0.515,0.985-1.158,0.985
				h-1.431l-0.798,5.038c-0.13,0.815,0.048,1.192,0.602,1.198c0.504,0.003,1.001-0.307,1.001-0.307s0.764,0.426,0.764,1.225
				c0,1.233-1.759,2.458-3.984,2.458c-2.361,0-3.313-1.445-2.913-3.972l0.891-5.638h-1.486l0.647-2.057
				c0.166-0.527,0.601-0.9,1.134-0.9h0.722l0.866-2.38C592.738,750.704,593.736,750.36,594.222,750.36L594.222,750.36z"/>
		</g>
		<g>
			<path d="M607.52,756.659c0,1.846-1.03,3.066-3.597,3.595l-2.695,0.556c0.208,1.161,0.937,1.729,2.147,1.729
				c1.484,0,2.478-1.12,2.478-1.12s0.758,0.422,0.758,1.289c0,1.538-2.359,3.206-5.102,3.206c-2.784,0-4.6-1.759-4.6-4.729
				c0-3.431,2.43-8.085,6.757-8.085C606.037,753.1,607.521,754.503,607.52,756.659L607.52,756.659z M602.967,758.432
				c0.574-0.181,0.747-0.655,0.747-1.198c0-0.511-0.166-1.274-0.758-1.274c-1.068,0-1.54,1.724-1.708,3.017L602.967,758.432z"/>
		</g>
		<g>
			<path d="M618.509,756.659c0,1.846-1.03,3.066-3.596,3.595l-2.695,0.556c0.207,1.161,0.937,1.729,2.147,1.729
				c1.486,0,2.477-1.12,2.477-1.12s0.759,0.422,0.759,1.289c0,1.538-2.359,3.206-5.102,3.206c-2.784,0-4.601-1.759-4.601-4.729
				c0-3.431,2.432-8.085,6.757-8.085c2.37,0,3.855,1.403,3.855,3.559H618.509z M613.956,758.432
				c0.574-0.181,0.747-0.655,0.747-1.198c0-0.511-0.167-1.274-0.758-1.274c-1.068,0-1.54,1.724-1.709,3.017L613.956,758.432z"/>
		</g>
		<g>
			<path d="M627.498,761.261c0,0,0.926,0.856,0.926,2.271c0,1.888-1.599,2.382-2.938,2.382c-1.746,0-3.016-0.832-4.344-1.281
				c-0.37,0.426-0.733,0.855-1.08,1.281c0,0-1.968-0.05-1.968-1.39c0-1.635,2.724-4.438,5.66-7.615
				c-0.339-0.061-0.663-0.103-0.957-0.103c-1.668,0-2.315,0.834-2.315,0.834s-0.858-0.987-0.786-2.272
				c0.097-1.781,1.791-2.269,3.121-2.269c1.411,0,2.446,0.545,3.464,0.991l0.827-0.991c0,0,1.985,0.061,1.985,1.408
				c0,1.577-2.637,4.33-5.487,7.403c0.603,0.169,1.164,0.306,1.721,0.306C626.807,762.217,627.498,761.261,627.498,761.261
				L627.498,761.261z"/>
		</g>
		<g>
			<path d="M640.273,764.827c-0.708,4.315-3.666,6.508-7.41,6.508c-2.391,0-4.175-1.256-4.175-2.711c0-0.96,0.799-1.405,0.799-1.405
				s0.813,0.74,2.415,0.74c1.503,0,3.54-0.641,3.898-2.909l0.281-1.766c-1.009,1.452-2.347,2.629-4.038,2.629
				c-1.9,0-2.746-1.554-2.245-4.713l0.54-3.419c0.333-2.094,0.424-3.803,0.424-3.803c1.352-0.25,3.134-0.88,3.758-0.88
				c0.483,0,0.931,0.403,0.931,0.403l-0.677,4.28l-0.626,3.948c-0.057,0.364,0.011,0.568,0.341,0.568
				c1.574,0,2.462-4.516,2.462-4.516c0.331-2.094,0.423-3.803,0.423-3.803c1.35-0.25,3.133-0.88,3.757-0.88
				c0.484,0,0.932,0.403,0.932,0.403l-0.678,4.28L640.273,764.827z"/>
		</g>
	</g>
	<g>
		<path d="M457.796,753.792h4.238c0.956,0,1.684,0.073,2.185,0.219c0.674,0.198,1.251,0.551,1.731,1.058
			c0.48,0.506,0.846,1.127,1.097,1.86c0.251,0.735,0.376,1.639,0.376,2.715c0,0.945-0.117,1.76-0.352,2.444
			c-0.287,0.836-0.697,1.512-1.23,2.029c-0.402,0.392-0.945,0.697-1.629,0.916c-0.512,0.162-1.196,0.243-2.052,0.243h-4.363V753.792
			z M460.115,755.734v7.606h1.731c0.648,0,1.115-0.037,1.402-0.11c0.376-0.094,0.688-0.253,0.936-0.478
			c0.248-0.224,0.45-0.594,0.607-1.109c0.157-0.514,0.235-1.215,0.235-2.103s-0.078-1.569-0.235-2.044
			c-0.157-0.475-0.376-0.846-0.658-1.112s-0.64-0.447-1.073-0.54c-0.324-0.073-0.958-0.11-1.903-0.11H460.115z"/>
		<path d="M473.87,762.628l2.193,0.368c-0.282,0.804-0.727,1.417-1.336,1.837c-0.608,0.42-1.369,0.63-2.283,0.63
			c-1.447,0-2.517-0.473-3.212-1.418c-0.548-0.757-0.823-1.713-0.823-2.867c0-1.379,0.36-2.458,1.081-3.239
			c0.721-0.781,1.632-1.171,2.734-1.171c1.238,0,2.214,0.409,2.93,1.225c0.715,0.818,1.057,2.07,1.026,3.756h-5.514
			c0.016,0.653,0.193,1.161,0.533,1.523c0.339,0.364,0.762,0.545,1.269,0.545c0.345,0,0.634-0.094,0.869-0.282
			C473.572,763.348,473.75,763.045,473.87,762.628z M473.995,760.403c-0.016-0.637-0.18-1.121-0.493-1.453
			c-0.313-0.331-0.695-0.497-1.144-0.497c-0.48,0-0.877,0.175-1.191,0.525c-0.313,0.35-0.467,0.825-0.462,1.426H473.995z"/>
		<path d="M476.878,762.902l2.209-0.337c0.094,0.428,0.285,0.754,0.572,0.975c0.287,0.223,0.689,0.333,1.206,0.333
			c0.569,0,0.997-0.104,1.285-0.313c0.193-0.146,0.29-0.342,0.29-0.587c0-0.167-0.052-0.306-0.157-0.415
			c-0.11-0.104-0.355-0.201-0.736-0.29c-1.776-0.392-2.901-0.749-3.376-1.073c-0.658-0.449-0.987-1.073-0.987-1.872
			c0-0.721,0.285-1.326,0.854-1.817c0.569-0.491,1.452-0.736,2.648-0.736c1.138,0,1.984,0.185,2.538,0.556
			c0.554,0.371,0.935,0.919,1.144,1.645l-2.076,0.384c-0.089-0.324-0.257-0.572-0.505-0.744c-0.248-0.172-0.602-0.258-1.061-0.258
			c-0.58,0-0.995,0.081-1.245,0.243c-0.167,0.115-0.251,0.264-0.251,0.446c0,0.157,0.073,0.29,0.219,0.4
			c0.198,0.146,0.884,0.352,2.056,0.619c1.172,0.266,1.991,0.593,2.456,0.979c0.46,0.392,0.689,0.937,0.689,1.637
			c0,0.762-0.319,1.418-0.956,1.966c-0.637,0.548-1.58,0.822-2.828,0.822c-1.133,0-2.03-0.23-2.691-0.689
			C477.514,764.314,477.081,763.69,476.878,762.902z"/>
		<path d="M486.254,755.828v-2.037h2.201v2.037H486.254z M486.254,765.275v-8.319h2.201v8.319H486.254z"/>
		<path d="M490.187,765.823l2.514,0.306c0.042,0.292,0.138,0.493,0.29,0.603c0.209,0.157,0.538,0.235,0.987,0.235
			c0.574,0,1.005-0.086,1.292-0.258c0.193-0.115,0.34-0.3,0.439-0.556c0.068-0.183,0.102-0.52,0.102-1.01v-1.214
			c-0.658,0.898-1.488,1.347-2.491,1.347c-1.118,0-2.003-0.473-2.655-1.418c-0.512-0.747-0.768-1.676-0.768-2.789
			c0-1.394,0.336-2.46,1.007-3.196c0.671-0.736,1.505-1.104,2.503-1.104c1.029,0,1.877,0.452,2.546,1.355v-1.167h2.06v7.465
			c0,0.982-0.081,1.715-0.243,2.201c-0.162,0.486-0.389,0.867-0.681,1.144c-0.292,0.277-0.683,0.493-1.171,0.65
			c-0.488,0.157-1.106,0.235-1.853,0.235c-1.41,0-2.41-0.242-3-0.725s-0.885-1.095-0.885-1.836
			C490.179,766.017,490.182,765.928,490.187,765.823z M492.153,760.943c0,0.883,0.171,1.529,0.513,1.938
			c0.342,0.411,0.764,0.615,1.265,0.615c0.538,0,0.992-0.21,1.363-0.631c0.371-0.42,0.556-1.043,0.556-1.868
			c0-0.862-0.178-1.501-0.533-1.919c-0.355-0.418-0.804-0.627-1.347-0.627c-0.527,0-0.962,0.205-1.304,0.615
			C492.324,759.478,492.153,760.103,492.153,760.943z"/>
		<path d="M507.436,765.275h-2.201v-4.246c0-0.898-0.047-1.479-0.141-1.742c-0.094-0.264-0.247-0.469-0.458-0.615
			c-0.211-0.146-0.466-0.219-0.764-0.219c-0.381,0-0.723,0.104-1.026,0.313c-0.303,0.209-0.51,0.486-0.623,0.83
			c-0.112,0.345-0.168,0.982-0.168,1.911v3.768h-2.201v-8.319h2.044v1.222c0.726-0.94,1.64-1.41,2.742-1.41
			c0.486,0,0.93,0.088,1.332,0.263c0.402,0.175,0.706,0.398,0.913,0.669c0.206,0.272,0.35,0.58,0.431,0.924
			c0.081,0.345,0.121,0.838,0.121,1.48V765.275z"/>
		<path d="M514.165,762.628l2.193,0.368c-0.282,0.804-0.727,1.417-1.336,1.837c-0.608,0.42-1.369,0.63-2.283,0.63
			c-1.447,0-2.517-0.473-3.212-1.418c-0.548-0.757-0.823-1.713-0.823-2.867c0-1.379,0.36-2.458,1.081-3.239
			c0.721-0.781,1.632-1.171,2.734-1.171c1.238,0,2.214,0.409,2.93,1.225c0.715,0.818,1.057,2.07,1.026,3.756h-5.514
			c0.016,0.653,0.193,1.161,0.533,1.523c0.339,0.364,0.762,0.545,1.269,0.545c0.345,0,0.634-0.094,0.869-0.282
			C513.867,763.348,514.045,763.045,514.165,762.628z M514.29,760.403c-0.016-0.637-0.18-1.121-0.493-1.453
			c-0.313-0.331-0.695-0.497-1.144-0.497c-0.48,0-0.877,0.175-1.191,0.525c-0.313,0.35-0.467,0.825-0.462,1.426H514.29z"/>
		<path d="M525.578,765.275h-2.044v-1.222c-0.339,0.475-0.74,0.829-1.202,1.062c-0.462,0.232-0.928,0.348-1.398,0.348
			c-0.956,0-1.774-0.385-2.456-1.156c-0.682-0.769-1.022-1.844-1.022-3.223c0-1.41,0.332-2.481,0.995-3.216
			c0.663-0.733,1.501-1.1,2.514-1.1c0.93,0,1.734,0.386,2.413,1.159v-4.136h2.201V765.275z M519.703,760.936
			c0,0.888,0.123,1.53,0.368,1.927c0.355,0.574,0.851,0.862,1.488,0.862c0.506,0,0.937-0.216,1.292-0.646
			c0.355-0.432,0.533-1.075,0.533-1.931c0-0.956-0.172-1.643-0.517-2.064c-0.345-0.42-0.786-0.631-1.324-0.631
			c-0.522,0-0.96,0.208-1.312,0.622C519.879,759.491,519.703,760.11,519.703,760.936z"/>
		<path d="M531.469,765.275v-11.483h2.201v4.136c0.679-0.773,1.483-1.159,2.413-1.159c1.013,0,1.851,0.367,2.514,1.1
			c0.663,0.734,0.995,1.788,0.995,3.161c0,1.42-0.338,2.514-1.014,3.282c-0.676,0.768-1.497,1.151-2.464,1.151
			c-0.475,0-0.944-0.119-1.406-0.357c-0.462-0.237-0.86-0.588-1.195-1.053v1.222H531.469z M533.654,760.936
			c0,0.862,0.136,1.499,0.407,1.911c0.381,0.585,0.888,0.877,1.52,0.877c0.486,0,0.9-0.207,1.242-0.623
			c0.342-0.414,0.513-1.069,0.513-1.962c0-0.95-0.172-1.635-0.517-2.056c-0.345-0.42-0.786-0.631-1.324-0.631
			c-0.527,0-0.966,0.205-1.316,0.615C533.829,759.478,533.654,760.1,533.654,760.936z"/>
		<path d="M540,756.956h2.342l1.99,5.906l1.943-5.906h2.279l-2.937,8.005l-0.525,1.449c-0.193,0.486-0.377,0.856-0.552,1.112
			c-0.175,0.256-0.376,0.463-0.603,0.622c-0.227,0.159-0.507,0.284-0.838,0.372c-0.332,0.089-0.706,0.133-1.124,0.133
			c-0.423,0-0.838-0.044-1.245-0.133l-0.196-1.723c0.345,0.068,0.655,0.102,0.932,0.102c0.512,0,0.89-0.151,1.136-0.45
			c0.245-0.301,0.433-0.683,0.564-1.148L540,756.956z"/>
	</g>
</g>
</svg>
